<svg width="133.000000" height="34.000000" viewBox="0 0 133 34" fill="none" xmlns="http://www.w3.org/2000/svg" xmlns:xlink="http://www.w3.org/1999/xlink">
	<desc>
			Created with Pixso.
	</desc>
	<defs>
		<linearGradient id="paint_linear_24_3134_0" x1="12.205894" y1="-0.779053" x2="12.205894" y2="33.220982" gradientUnits="userSpaceOnUse">
			<stop stop-color="#FFAC0B"/>
			<stop offset="1.000000" stop-color="#0B99FF"/>
		</linearGradient>
	</defs>
	<path id="Vector" d="M16.6 -0.78L23.09 6.92L24.61 21.16L13.14 33.22L-0.21 21.12L6.51 4.02L16.6 -0.78ZM7.09 5.33L12.46 11L6.97 18.95L1.23 20.26L7.09 5.33ZM1.47 21.26L11.66 30.49L6.99 20L1.47 21.26ZM8.1 20L13.27 31.59L22.98 21.39L8.1 20ZM23.43 19.69L22.17 7.86L14.06 11.12L23.43 19.69ZM13.24 10.34L21.75 6.92L16.32 0.48L7.77 4.56L13.24 10.34ZM13.2 11.72L22.61 20.32L8.2 18.97L13.2 11.72Z" fill="url(#paint_linear_24_3134_0)" fill-opacity="1.000000" fill-rule="evenodd"/>
	<path id="Vector" d="M65.34 25.94C62.46 25.94 60.03 25 58.08 23.09C56.14 21.19 55.17 18.79 55.17 15.95C55.17 13.11 56.14 10.75 58.08 8.84C60.03 6.94 62.46 5.96 65.34 5.96C67.77 5.96 69.86 6.68 71.7 8.1C73.53 9.48 74.69 11.31 75.17 13.52L71.77 13.52C70.76 10.86 68.33 9.07 65.34 9.07C63.36 9.07 61.75 9.74 60.44 11.05C59.13 12.36 58.49 13.97 58.49 15.95C58.49 17.93 59.13 19.58 60.44 20.89C61.75 22.2 63.36 22.83 65.34 22.83C68.33 22.83 70.76 21.04 71.77 18.38L75.17 18.38C74.69 20.59 73.53 22.42 71.7 23.84C69.86 25.23 67.77 25.94 65.34 25.94Z" fill="#000000" fill-opacity="1.000000" fill-rule="nonzero"/>
	<path id="Vector" d="M106.94 7.95C105.63 6.64 103.91 5.96 101.78 5.96C98.6 5.96 96.28 7.27 94.9 9.93C93.81 7.42 91.42 5.96 88.39 5.96C85.62 5.96 83.53 7.01 82.14 9.14L82.14 6.41L78.93 6.41L78.93 25.49L82.14 25.49L82.14 14.16C82.14 11.13 84.24 9.07 87.38 9.07C90.37 9.07 92.32 11.05 92.32 14.08L92.32 25.49L95.53 25.49L95.53 14.16C95.53 11.13 97.63 9.07 100.77 9.07C103.76 9.07 105.71 11.05 105.71 14.08L105.71 25.49L108.92 25.49L108.92 13.18C108.92 10.98 108.25 9.26 106.94 7.95Z" fill="#000000" fill-opacity="1.000000" fill-rule="nonzero"/>
	<path id="Vector" d="M132.7 17.19L132.7 17.18C132.73 16.74 132.76 16.33 132.76 15.95C132.76 13.11 131.79 10.75 129.84 8.84C127.94 6.94 125.51 5.96 122.63 5.96C119.75 5.96 117.31 6.94 115.37 8.84C113.46 10.75 112.49 13.11 112.49 15.95C112.49 18.79 113.46 21.19 115.37 23.09C117.31 25 119.75 25.94 122.63 25.94C127.26 25.94 131 23.32 132.39 19.39L128.83 19.39C127.82 21.52 125.47 22.98 122.63 22.98C120.91 22.98 119.41 22.46 118.18 21.41C116.94 20.36 116.19 18.98 115.93 17.3L132.69 17.3L132.7 17.19ZM129.32 14.42L115.97 14.42C116.6 11.13 119.22 8.92 122.63 8.92C126.03 8.92 128.72 11.16 129.32 14.42Z" fill="#000000" fill-opacity="1.000000" fill-rule="evenodd"/>
	<path id="Vector" d="M52.39 6.41L37.88 6.41L37.88 9.52L49.17 9.52L49.17 13.26L43.49 13.26C41.5 13.26 39.86 13.86 38.55 15.09C37.24 16.29 36.61 17.78 36.61 19.58C36.61 21.41 37.24 22.91 38.55 24.14C39.86 25.34 41.5 25.94 43.49 25.94C46.07 25.94 48.31 24.81 49.51 23.02L49.51 25.49L52.39 25.49L52.39 6.41ZM49.17 19.24C49.17 21.49 47.04 23.02 43.9 23.02C41.62 23.02 39.93 21.56 39.93 19.58C39.93 17.63 41.62 16.18 43.9 16.18L49.17 16.18L49.17 19.24Z" fill="#000000" fill-opacity="1.000000" fill-rule="evenodd"/>
</svg>
