<svg width="60" height="60" viewBox="0 0 60 60" fill="none" xmlns="http://www.w3.org/2000/svg">
<circle cx="30" cy="30" r="29.5" fill="#064163" stroke="#F5F6F7"/>
<rect width="32" height="32" transform="translate(14 14)" fill="#064163"/>
<path d="M39 20H31V16C31 15.7348 30.8946 15.4804 30.7071 15.2929C30.5196 15.1054 30.2652 15 30 15C29.7348 15 29.4804 15.1054 29.2929 15.2929C29.1054 15.4804 29 15.7348 29 16V20H21C19.9391 20 18.9217 20.4214 18.1716 21.1716C17.4214 21.9217 17 22.9391 17 24V38C17 39.0609 17.4214 40.0783 18.1716 40.8284C18.9217 41.5786 19.9391 42 21 42H39C40.0609 42 41.0783 41.5786 41.8284 40.8284C42.5786 40.0783 43 39.0609 43 38V24C43 22.9391 42.5786 21.9217 41.8284 21.1716C41.0783 20.4214 40.0609 20 39 20ZM41 38C41 38.5304 40.7893 39.0391 40.4142 39.4142C40.0391 39.7893 39.5304 40 39 40H21C20.4696 40 19.9609 39.7893 19.5858 39.4142C19.2107 39.0391 19 38.5304 19 38V24C19 23.4696 19.2107 22.9609 19.5858 22.5858C19.9609 22.2107 20.4696 22 21 22H39C39.5304 22 40.0391 22.2107 40.4142 22.5858C40.7893 22.9609 41 23.4696 41 24V38ZM34.5 31H25.5C24.5717 31 23.6815 31.3687 23.0251 32.0251C22.3687 32.6815 22 33.5717 22 34.5C22 35.4283 22.3687 36.3185 23.0251 36.9749C23.6815 37.6313 24.5717 38 25.5 38H34.5C35.4283 38 36.3185 37.6313 36.9749 36.9749C37.6313 36.3185 38 35.4283 38 34.5C38 33.5717 37.6313 32.6815 36.9749 32.0251C36.3185 31.3687 35.4283 31 34.5 31ZM31.5 33V36H28.5V33H31.5ZM24 34.5C24 34.1022 24.158 33.7206 24.4393 33.4393C24.7206 33.158 25.1022 33 25.5 33H26.5V36H25.5C25.1022 36 24.7206 35.842 24.4393 35.5607C24.158 35.2794 24 34.8978 24 34.5ZM34.5 36H33.5V33H34.5C34.8978 33 35.2794 33.158 35.5607 33.4393C35.842 33.7206 36 34.1022 36 34.5C36 34.8978 35.842 35.2794 35.5607 35.5607C35.2794 35.842 34.8978 36 34.5 36ZM23 27.5C23 27.2033 23.088 26.9133 23.2528 26.6666C23.4176 26.42 23.6519 26.2277 23.926 26.1142C24.2001 26.0006 24.5017 25.9709 24.7926 26.0288C25.0836 26.0867 25.3509 26.2296 25.5607 26.4393C25.7704 26.6491 25.9133 26.9164 25.9712 27.2074C26.0291 27.4983 25.9994 27.7999 25.8858 28.074C25.7723 28.3481 25.58 28.5824 25.3334 28.7472C25.0867 28.912 24.7967 29 24.5 29C24.1022 29 23.7206 28.842 23.4393 28.5607C23.158 28.2794 23 27.8978 23 27.5ZM34 27.5C34 27.2033 34.088 26.9133 34.2528 26.6666C34.4176 26.42 34.6519 26.2277 34.926 26.1142C35.2001 26.0006 35.5017 25.9709 35.7926 26.0288C36.0836 26.0867 36.3509 26.2296 36.5607 26.4393C36.7704 26.6491 36.9133 26.9164 36.9712 27.2074C37.0291 27.4983 36.9993 27.7999 36.8858 28.074C36.7723 28.3481 36.58 28.5824 36.3334 28.7472C36.0867 28.912 35.7967 29 35.5 29C35.1022 29 34.7206 28.842 34.4393 28.5607C34.158 28.2794 34 27.8978 34 27.5Z" fill="white"/>
</svg>
