<svg width="130.000000" height="34.000000" viewBox="0 0 130 34" fill="none" xmlns="http://www.w3.org/2000/svg" xmlns:xlink="http://www.w3.org/1999/xlink">
	<desc>
			Created with Pixso.
	</desc>
	<defs>
		<clipPath id="clip24_3168">
			<rect id="Frame" width="129.199997" height="34.000000" transform="translate(-0.189453 0.000000)" fill="white" fill-opacity="0"/>
		</clipPath>
	</defs>
	<rect id="Frame" width="129.199997" height="34.000000" transform="translate(-0.189453 0.000000)" fill="#FFFFFF" fill-opacity="0"/>
	<g clip-path="url(#clip24_3168)">
		<path id="Vector" d="M16.52 13.46C16.06 13.45 15.61 13.53 15.18 13.7C14.75 13.87 14.37 14.13 14.04 14.45C13.39 15.11 13.07 15.96 13.07 17C13.07 18.03 13.39 18.88 14.04 19.54C14.36 19.87 14.75 20.13 15.18 20.3C15.6 20.47 16.06 20.55 16.52 20.53C16.98 20.55 17.44 20.47 17.87 20.3C18.3 20.13 18.69 19.87 19.02 19.54C19.67 18.89 20 18.04 20 17C20 15.95 19.67 15.1 19.02 14.45C18.69 14.12 18.3 13.87 17.87 13.7C17.44 13.53 16.98 13.45 16.52 13.46Z" fill="#000000" fill-opacity="1.000000" fill-rule="nonzero"/>
		<path id="Vector" d="M16.97 5.95C14.79 5.95 12.65 6.59 10.84 7.81C9.02 9.02 7.6 10.75 6.77 12.77C5.93 14.79 5.71 17.01 6.14 19.15C6.56 21.29 7.62 23.26 9.16 24.81C10.71 26.35 12.68 27.41 14.82 27.83C16.96 28.26 19.18 28.04 21.2 27.2C23.22 26.37 24.95 24.95 26.16 23.13C27.38 21.32 28.02 19.18 28.02 17C28.02 14.07 26.86 11.26 24.78 9.19C22.71 7.11 19.9 5.95 16.97 5.95ZM23.23 23.26L20 23.26L20 21.78C19.04 23 17.68 23.61 15.92 23.61C14.25 23.61 12.82 22.97 11.63 21.69C10.43 20.41 9.84 18.85 9.83 17C9.83 15.14 10.43 13.58 11.62 12.3C12.82 11.02 14.25 10.38 15.92 10.38C17.67 10.38 19.03 10.99 20 12.21L20 10.73L23.23 10.73L23.23 23.26Z" fill="#000000" fill-opacity="1.000000" fill-rule="nonzero"/>
		<path id="Vector" d="M33.98 17C33.98 15.73 32.86 14.62 32.59 13.43C32.31 12.2 32.83 10.71 32.3 9.61C31.77 8.52 30.26 7.97 29.49 7.01C28.73 6.04 28.54 4.47 27.58 3.7C26.61 2.93 25.04 3.11 23.92 2.57C22.8 2.03 21.98 0.7 20.76 0.42C19.57 0.15 18.24 0.99 16.98 0.99C15.71 0.99 14.37 0.15 13.19 0.42C11.97 0.7 11.13 2.03 10.03 2.57C8.93 3.1 7.34 2.94 6.38 3.7C5.42 4.47 5.23 6.05 4.46 7.01C3.69 7.98 2.2 8.5 1.66 9.62C1.11 10.74 1.64 12.21 1.36 13.43C1.1 14.62 -0.02 15.73 -0.02 17C-0.02 18.26 1.1 19.37 1.36 20.57C1.64 21.79 1.12 23.29 1.66 24.38C2.19 25.47 3.7 26.02 4.46 26.98C5.22 27.95 5.41 29.52 6.38 30.29C7.34 31.07 8.91 30.89 10.03 31.43C11.15 31.97 11.97 33.3 13.19 33.58C14.38 33.85 15.71 33.01 16.98 33.01C18.24 33.01 19.58 33.85 20.76 33.58C21.98 33.3 22.82 31.96 23.92 31.43C25.03 30.9 26.61 31.06 27.58 30.29C28.54 29.53 28.72 27.95 29.49 26.98C30.26 26.02 31.76 25.5 32.3 24.38C32.84 23.26 32.31 21.79 32.59 20.57C32.86 19.37 33.98 18.26 33.98 17ZM16.98 28.73C14.66 28.73 12.39 28.04 10.46 26.75C8.53 25.46 7.03 23.63 6.14 21.48C5.25 19.34 5.02 16.98 5.47 14.71C5.92 12.43 7.04 10.34 8.68 8.7C10.32 7.06 12.41 5.94 14.69 5.49C16.96 5.04 19.32 5.27 21.46 6.16C23.61 7.05 25.44 8.55 26.73 10.48C28.02 12.41 28.71 14.68 28.71 17C28.7 20.11 27.47 23.09 25.27 25.29C23.07 27.49 20.09 28.72 16.98 28.73Z" fill="#000000" fill-opacity="1.000000" fill-rule="nonzero"/>
		<path id="Vector" d="M77.33 9.33C78.58 9.33 79.7 9.59 80.67 10.12C81.65 10.62 82.42 11.4 82.99 12.43C83.55 13.46 83.83 14.72 83.83 16.21L83.83 25.67L81.2 25.67L81.2 16.59C81.2 14.99 80.8 13.77 80 12.93C79.22 12.07 78.15 11.64 76.81 11.64C75.42 11.64 74.32 12.09 73.5 12.99C72.68 13.86 72.27 15.14 72.27 16.82L72.27 25.67L69.63 25.67L69.63 16.59C69.63 14.99 69.23 13.77 68.43 12.93C67.65 12.07 66.59 11.64 65.24 11.64C63.86 11.64 62.75 12.09 61.93 12.99C61.11 13.86 60.7 15.14 60.7 16.82L60.7 25.67L58.04 25.67L58.04 9.62L60.7 9.62L60.7 11.93C61.23 11.09 61.93 10.45 62.81 10C63.71 9.55 64.69 9.33 65.77 9.33C67.12 9.33 68.31 9.63 69.34 10.23C70.37 10.84 71.15 11.73 71.65 12.9C72.1 11.77 72.84 10.89 73.88 10.26C74.91 9.64 76.07 9.33 77.33 9.33Z" fill="#000000" fill-opacity="1.000000" fill-rule="nonzero"/>
		<path id="Vector" d="M107.14 12.23C107.61 11.31 108.28 10.6 109.13 10.09C110.01 9.58 111.08 9.33 112.33 9.33L112.33 12.08L111.62 12.08C108.64 12.08 107.14 13.7 107.14 16.94L107.14 25.67L104.48 25.67L104.48 9.62L107.14 9.62L107.14 12.23Z" fill="#000000" fill-opacity="1.000000" fill-rule="nonzero"/>
		<path id="Vector" d="M112.65 17.58C112.65 15.94 112.98 14.51 113.64 13.28C114.31 12.03 115.22 11.06 116.37 10.38C117.54 9.7 118.84 9.36 120.26 9.36C121.67 9.36 122.89 9.66 123.92 10.26C124.96 10.87 125.73 11.63 126.24 12.55L126.24 9.62L128.93 9.62L128.93 25.67L126.24 25.67L126.24 22.68C125.71 23.62 124.92 24.4 123.86 25.02C122.83 25.63 121.62 25.93 120.23 25.93C118.81 25.93 117.52 25.58 116.37 24.87C115.22 24.17 114.31 23.19 113.64 21.92C112.98 20.65 112.65 19.2 112.65 17.58ZM126.24 17.61C126.24 16.4 125.99 15.35 125.5 14.45C125.02 13.55 124.35 12.87 123.51 12.4C122.69 11.91 121.79 11.67 120.79 11.67C119.79 11.67 118.89 11.9 118.07 12.37C117.25 12.84 116.59 13.52 116.1 14.42C115.62 15.32 115.37 16.37 115.37 17.58C115.37 18.81 115.62 19.89 116.1 20.8C116.59 21.7 117.25 22.4 118.07 22.88C118.89 23.35 119.79 23.59 120.79 23.59C121.79 23.59 122.69 23.35 123.51 22.88C124.35 22.4 125.02 21.7 125.5 20.8C125.99 19.89 126.24 18.82 126.24 17.61Z" fill="#000000" fill-opacity="1.000000" fill-rule="evenodd"/>
		<path id="Vector" d="M86.45 13.28C85.78 14.51 85.45 15.94 85.45 17.58C85.45 19.2 85.78 20.65 86.45 21.92C87.11 23.19 88.02 24.17 89.17 24.87C90.32 25.58 91.61 25.93 93.04 25.93C94.42 25.93 95.63 25.63 96.67 25.02C97.72 24.4 98.51 23.62 99.04 22.68L99.04 25.67L101.73 25.67L101.73 9.62L99.04 9.62L99.04 12.55C98.53 11.63 97.76 10.87 96.73 10.26C95.69 9.66 94.47 9.36 93.07 9.36C91.64 9.36 90.34 9.7 89.17 10.38C88.02 11.06 87.11 12.03 86.45 13.28ZM98.31 14.45C98.79 15.35 99.04 16.4 99.04 17.61C99.04 18.82 98.79 19.89 98.31 20.8C97.82 21.7 97.15 22.4 96.32 22.88C95.5 23.35 94.59 23.59 93.59 23.59C92.6 23.59 91.69 23.35 90.87 22.88C90.05 22.4 89.4 21.7 88.91 20.8C88.42 19.89 88.17 18.81 88.17 17.58C88.17 16.37 88.42 15.32 88.91 14.42C89.4 13.52 90.05 12.84 90.87 12.37C91.69 11.9 92.6 11.67 93.59 11.67C94.59 11.67 95.5 11.91 96.32 12.4C97.15 12.87 97.82 13.55 98.31 14.45Z" fill="#000000" fill-opacity="1.000000" fill-rule="evenodd"/>
		<path id="Vector" d="M40.01 13.28C39.34 14.51 39.01 15.94 39.01 17.58C39.01 19.2 39.34 20.65 40.01 21.92C40.67 23.19 41.58 24.17 42.73 24.87C43.88 25.58 45.17 25.93 46.6 25.93C47.98 25.93 49.19 25.63 50.23 25.02C51.28 24.4 52.07 23.62 52.6 22.68L52.6 25.67L55.29 25.67L55.29 9.62L52.6 9.62L52.6 12.55C52.09 11.63 51.32 10.87 50.29 10.26C49.25 9.66 48.03 9.36 46.62 9.36C45.2 9.36 43.9 9.7 42.73 10.38C41.58 11.06 40.67 12.03 40.01 13.28ZM51.87 14.45C52.35 15.35 52.6 16.4 52.6 17.61C52.6 18.82 52.35 19.89 51.87 20.8C51.38 21.7 50.71 22.4 49.87 22.88C49.05 23.35 48.15 23.59 47.15 23.59C46.16 23.59 45.25 23.35 44.43 22.88C43.61 22.4 42.96 21.7 42.47 20.8C41.98 19.89 41.73 18.81 41.73 17.58C41.73 16.37 41.98 15.32 42.47 14.42C42.96 13.52 43.61 12.84 44.43 12.37C45.25 11.9 46.16 11.67 47.15 11.67C48.15 11.67 49.05 11.91 49.87 12.4C50.71 12.87 51.38 13.55 51.87 14.45Z" fill="#000000" fill-opacity="1.000000" fill-rule="evenodd"/>
	</g>
</svg>
