<svg width="25" height="25" viewBox="0 0 25 25" fill="none" xmlns="http://www.w3.org/2000/svg">
<path d="M21.2806 13.3487L14.5306 20.0987C14.3899 20.2394 14.199 20.3185 14 20.3185C13.801 20.3185 13.6101 20.2394 13.4694 20.0987C13.3286 19.9579 13.2496 19.7671 13.2496 19.568C13.2496 19.369 13.3286 19.1782 13.4694 19.0374L18.9397 13.568H4.25C4.05109 13.568 3.86032 13.489 3.71967 13.3484C3.57902 13.2077 3.5 13.017 3.5 12.818C3.5 12.6191 3.57902 12.4284 3.71967 12.2877C3.86032 12.1471 4.05109 12.068 4.25 12.068H18.9397L13.4694 6.59867C13.3286 6.45794 13.2496 6.26707 13.2496 6.06804C13.2496 5.86902 13.3286 5.67815 13.4694 5.53742C13.6101 5.39669 13.801 5.31763 14 5.31763C14.199 5.31763 14.3899 5.39669 14.5306 5.53742L21.2806 12.2874C21.3504 12.3571 21.4057 12.4398 21.4434 12.5308C21.4812 12.6219 21.5006 12.7195 21.5006 12.818C21.5006 12.9166 21.4812 13.0142 21.4434 13.1052C21.4057 13.1963 21.3504 13.279 21.2806 13.3487Z" fill="#354764"/>
</svg>