<svg width="152.000000" height="34.000000" viewBox="0 0 152 34" fill="none" xmlns="http://www.w3.org/2000/svg" xmlns:xlink="http://www.w3.org/1999/xlink">
	<desc>
			Created with Pixso.
	</desc>
	<defs>
		<linearGradient id="paint_linear_24_3158_0" x1="17.700428" y1="30.876738" x2="17.700428" y2="7.769674" gradientUnits="userSpaceOnUse">
			<stop stop-color="#FF8A11"/>
			<stop offset="1.000000" stop-color="#FFDA6A"/>
		</linearGradient>
		<linearGradient id="paint_linear_24_3159_0" x1="17.700127" y1="30.876783" x2="17.700127" y2="7.769718" gradientUnits="userSpaceOnUse">
			<stop stop-color="#FF8A11"/>
			<stop offset="1.000000" stop-color="#FFDA6A"/>
		</linearGradient>
		<linearGradient id="paint_linear_24_3160_0" x1="17.701057" y1="30.876740" x2="17.701057" y2="7.769680" gradientUnits="userSpaceOnUse">
			<stop stop-color="#FF8A11"/>
			<stop offset="1.000000" stop-color="#FFDA6A"/>
		</linearGradient>
		<linearGradient id="paint_linear_24_3161_0" x1="17.700748" y1="30.876740" x2="17.700748" y2="7.769680" gradientUnits="userSpaceOnUse">
			<stop stop-color="#FF8A11"/>
			<stop offset="1.000000" stop-color="#FFDA6A"/>
		</linearGradient>
		<linearGradient id="paint_linear_24_3162_0" x1="17.700710" y1="30.876783" x2="17.700710" y2="7.769718" gradientUnits="userSpaceOnUse">
			<stop stop-color="#FF8A11"/>
			<stop offset="1.000000" stop-color="#FFDA6A"/>
		</linearGradient>
	</defs>
	<mask id="mask24_3155" mask-type="alpha" maskUnits="userSpaceOnUse" x="-0.339844" y="0.000000" width="152.150391" height="34.000000">
		<path id="Vector" d="M-0.34 0L151.81 0L151.81 34L-0.34 34L-0.34 0Z" fill="#000000" fill-opacity="1.000000" fill-rule="evenodd"/>
	</mask>
	<g mask="url(#mask24_3155)">
		<path id="Vector" d="M13.36 33.91L10.77 33.91L10.77 -0.09L13.36 2.08L13.36 33.91Z" fill="url(#paint_linear_24_3158_0)" fill-opacity="1.000000" fill-rule="nonzero"/>
		<path id="Vector" d="M5.13 33.91L7.73 33.91L7.73 6.5L5.13 8.67L5.13 33.91Z" fill="url(#paint_linear_24_3159_0)" fill-opacity="1.000000" fill-rule="nonzero"/>
		<path id="Vector" d="M2.32 33.91L-0.28 33.91L-0.28 15.16L2.32 13L2.32 33.91Z" fill="url(#paint_linear_24_3160_0)" fill-opacity="1.000000" fill-rule="nonzero"/>
		<path id="Vector" d="M24.41 33.91L21.81 33.91L21.81 13L24.41 15.16L24.41 33.91Z" fill="url(#paint_linear_24_3161_0)" fill-opacity="1.000000" fill-rule="nonzero"/>
		<path id="Vector" d="M16.4 33.91L19 33.91L19 8.67L16.4 6.5L16.4 33.91Z" fill="url(#paint_linear_24_3162_0)" fill-opacity="1.000000" fill-rule="nonzero"/>
		<path id="Vector" d="M52.68 24.33L52.68 23.16L49.79 23.16L49.79 24.28C49.79 26.77 50.6 29 54.08 29C57.56 29 58.48 26.48 58.48 23.8C58.48 20.62 57.63 19.41 54.84 17.31C53.2 16.09 52.95 15.36 52.95 14.11C52.95 12.85 53.17 12.03 54.14 12.03C55.11 12.03 55.33 12.85 55.33 14.15L55.33 15.07L58.17 15.07L58.17 14.06C58.17 12.01 57.57 9.52 54.2 9.52C50.84 9.52 50.1 12.03 50.1 14.52C50.1 17.31 51.17 18.35 53.17 19.95C55.17 21.55 55.6 22.18 55.6 24.21C55.6 25.44 55.28 26.52 54.19 26.52C53.1 26.52 52.68 25.73 52.68 24.33ZM35.89 28.72L36.54 23.67L39.41 23.67L40.15 28.72L43.15 28.72L40.04 9.82L35.98 9.82L32.98 28.72L35.89 28.72ZM38.02 12.59C38.23 14.73 38.64 17.78 39.06 20.99L36.91 20.99C36.97 20.55 37.04 20.09 37.1 19.6L37.1 19.6C37.45 16.99 37.86 13.91 37.92 12.59L38.02 12.59ZM74.51 28.72L72.26 28.72C72.18 28.26 72.13 27.78 72.11 27.31C71.59 28.57 70.51 29 69.31 29C66.57 29 65.68 26.99 65.68 23.81L65.68 14.9C65.68 11.82 66.87 9.55 70.1 9.55C74.01 9.55 74.43 12.46 74.43 14.5L74.43 15.11L71.54 15.11L71.54 14.35C71.54 13.35 71.4 12.2 70.09 12.2C69.04 12.2 68.59 12.94 68.59 14.45L68.59 24.12C68.59 25.63 69.02 26.42 70.06 26.42C71.31 26.42 71.61 25.37 71.61 23.42L71.61 20.66L70 20.66L70 18.15L74.51 18.15L74.51 28.72ZM84.53 28.72L85.19 23.67L88.04 23.67L88.78 28.72L91.77 28.72L88.65 9.82L84.59 9.82L81.63 28.72L84.53 28.72ZM86.67 12.59C86.88 14.73 87.29 17.78 87.71 20.99L85.54 20.99C85.6 20.55 85.66 20.09 85.73 19.6L85.73 19.6L85.73 19.6C86.07 16.99 86.49 13.91 86.55 12.59L86.67 12.59ZM101.59 20.28L101.59 28.72L98.72 28.72L98.72 9.82L102.69 9.82C105.53 9.82 107.2 10.98 107.2 14.37L107.2 15.09C107.2 17.99 106.02 18.73 105.31 19.03C106.4 19.55 107.01 20.33 107.01 22.93C106.97 24.86 107.02 26.8 107.19 28.73L104.41 28.73C104.2 27.75 104.21 25.3 104.22 23.76C104.22 23.52 104.22 23.3 104.22 23.11C104.22 20.81 103.92 20.28 102.26 20.28L101.59 20.28ZM101.59 17.87L102.25 17.87C103.77 17.87 104.33 17.28 104.33 15.23L104.33 14.58C104.33 13.12 104.03 12.23 102.4 12.23L101.59 12.23L101.59 17.87ZM118.9 9.82L114.92 9.82L114.92 28.72L118.9 28.72C123.32 28.72 123.81 25.55 123.81 22.66L123.81 15.41C123.81 11.9 122.85 9.82 118.9 9.82ZM118.74 26.24L117.82 26.24L117.82 12.33L118.72 12.33C120.62 12.33 120.92 13.44 120.92 15.18L120.92 23.05C120.92 25.01 120.63 26.24 118.74 26.24ZM134.43 9.82L134.43 28.72L131.56 28.72L131.56 9.82L134.43 9.82ZM144.39 28.72L145.04 23.67L147.9 23.67L148.63 28.72L151.64 28.72L148.52 9.82L144.46 9.82L141.46 28.72L144.39 28.72ZM147.41 19.85C147.46 20.23 147.51 20.61 147.56 20.99L145.4 20.99C145.44 20.72 145.47 20.44 145.51 20.16C145.88 17.45 146.34 14 146.41 12.59L146.52 12.59C146.7 14.47 147.04 17.06 147.41 19.85Z" fill="#262933" fill-opacity="1.000000" fill-rule="evenodd"/>
	</g>
</svg>
