<svg width="85.000000" height="34.000000" viewBox="0 0 85 34" fill="none" xmlns="http://www.w3.org/2000/svg" xmlns:xlink="http://www.w3.org/1999/xlink">
	<desc>
			Created with Pixso.
	</desc>
	<defs>
		<clipPath id="clip24_3164">
			<rect id="Frame" width="85.000000" height="34.000000" transform="translate(-0.190430 0.000000)" fill="white" fill-opacity="0"/>
		</clipPath>
	</defs>
	<rect id="Frame" width="85.000000" height="34.000000" transform="translate(-0.190430 0.000000)" fill="#FFFFFF" fill-opacity="0"/>
	<g clip-path="url(#clip24_3164)">
		<path id="Vector" d="M74.37 20.19C74.37 23.48 71.9 25.96 68.67 25.96C65.46 25.96 63 23.48 63 20.19C63 16.91 65.46 14.43 68.67 14.43C71.9 14.43 74.37 16.91 74.37 20.19Z" fill="#5C47C4" fill-opacity="1.000000" fill-rule="nonzero"/>
		<path id="Vector" d="M21.62 20.19C21.62 23.48 19.15 25.96 15.91 25.96C12.71 25.96 10.24 23.48 10.24 20.19C10.24 16.91 12.71 14.43 15.91 14.43C19.15 14.43 21.62 16.91 21.62 20.19Z" fill="#5C47C4" fill-opacity="1.000000" fill-rule="nonzero"/>
		<path id="Vector" d="M4.9 0C2.09 0 -0.2 2.28 -0.2 5.1L-0.2 28.9C-0.2 31.71 2.09 34 4.9 34L79.71 34C82.52 34 84.8 31.71 84.8 28.9L84.8 5.1C84.8 2.28 82.52 0 79.71 0L4.9 0ZM77.15 12.14L74.37 12.14L74.37 14.91C73.09 12.94 71.04 11.72 68.31 11.72C63.86 11.72 60.21 15.42 60.21 20.19C60.21 24.96 63.86 28.67 68.31 28.67C71.04 28.67 73.09 27.44 74.37 25.48L74.37 28.25L77.15 28.25L77.15 12.14ZM52.32 28.67C47.49 28.67 43.9 24.96 43.9 20.19C43.9 15.42 47.49 11.72 52.32 11.72C55.5 11.72 58.19 13.39 59.4 15.94L57.07 17.29C56.26 15.59 54.47 14.46 52.32 14.46C49.12 14.46 46.69 16.94 46.69 20.19C46.69 23.42 49.12 25.9 52.32 25.9C54.5 25.9 56.26 24.77 57.16 23.09L59.53 24.48C58.19 26.99 55.46 28.67 52.32 28.67ZM38.24 7.34C38.24 8.37 39.07 9.21 40.13 9.21C41.15 9.21 41.98 8.37 41.98 7.34C41.98 6.31 41.15 5.44 40.13 5.44C39.07 5.44 38.24 6.31 38.24 7.34ZM38.72 12.14L38.72 28.25L41.5 28.25L41.5 12.14L38.72 12.14ZM36.38 14.84L32.12 14.84L32.12 23.58C32.12 25.93 33.42 25.87 36.06 25.75L36.38 25.74L36.38 28.25C31.57 28.89 29.33 27.6 29.33 23.58L29.33 14.84L26.16 14.84L26.16 12.14L29.33 12.14L29.33 8.46L32.12 7.63L32.12 12.14L36.38 12.14L36.38 14.84ZM24.4 12.14L21.62 12.14L21.62 14.91C20.33 12.94 18.28 11.72 15.56 11.72C11.11 11.72 7.45 15.42 7.45 20.19C7.45 24.96 11.11 28.67 15.56 28.67C18.28 28.67 20.33 27.44 21.62 25.48L21.62 28.25L24.4 28.25L24.4 12.14Z" fill="#5C47C4" fill-opacity="1.000000" fill-rule="evenodd"/>
	</g>
</svg>
