<svg width="119.000000" height="34.000000" viewBox="0 0 119 34" fill="none" xmlns="http://www.w3.org/2000/svg" xmlns:xlink="http://www.w3.org/1999/xlink">
	<desc>
			Created with Pixso.
	</desc>
	<defs>
		<linearGradient id="paint_linear_24_3144_0" x1="16.830078" y1="35.601425" x2="16.830078" y2="24.423927" gradientUnits="userSpaceOnUse">
			<stop stop-color="#FF8A11"/>
			<stop offset="1.000000" stop-color="#E81894"/>
		</linearGradient>
		<linearGradient id="paint_linear_24_3145_0" x1="19.330782" y1="32.519295" x2="5.414579" y2="16.221376" gradientUnits="userSpaceOnUse">
			<stop stop-color="#B03B83"/>
			<stop offset="1.000000" stop-color="#6F4A9E"/>
		</linearGradient>
		<linearGradient id="paint_linear_24_3146_0" x1="16.830076" y1="26.105186" x2="16.830076" y2="13.829470" gradientUnits="userSpaceOnUse">
			<stop stop-color="#FF8A11"/>
			<stop offset="1.000000" stop-color="#E81894"/>
		</linearGradient>
	</defs>
	<mask id="mask24_3141" mask-type="alpha" maskUnits="userSpaceOnUse" x="-0.169922" y="0.000000" width="118.830078" height="34.000000">
		<path id="Vector" d="M-0.17 0L118.66 0L118.66 34L-0.17 34L-0.17 0Z" fill="#000000" fill-opacity="1.000000" fill-rule="evenodd"/>
	</mask>
	<g mask="url(#mask24_3141)">
		<path id="Vector" d="M33.83 10.67L33.83 15.62C33.83 25.77 26.21 34 16.83 34C7.44 34 -0.17 25.77 -0.17 15.62L-0.17 10.67L17.57 29.02L33.83 10.67Z" fill="url(#paint_linear_24_3144_0)" fill-opacity="1.000000" fill-rule="nonzero"/>
		<path id="Vector" d="M0.57 10.65C0.36 10.65 0.14 10.65 -0.07 10.67C-0.14 11.29 -0.17 11.92 -0.17 12.55C-0.17 21.9 7.44 29.48 16.83 29.48C17.04 29.48 17.25 29.48 17.46 29.47C17.53 28.84 17.57 28.21 17.57 27.59C17.57 18.23 9.96 10.65 0.57 10.65Z" fill="url(#paint_linear_24_3145_0)" fill-opacity="1.000000" fill-rule="nonzero"/>
		<path id="Vector" d="M33.72 10.67C24.72 11.11 17.57 18.52 17.57 27.59C17.57 18.24 9.96 10.65 0.57 10.65C0.36 10.65 0.14 10.65 -0.07 10.67C-0.14 11.29 -0.17 11.92 -0.17 12.55C-0.17 21.9 7.44 29.48 16.83 29.48C17.04 29.48 17.25 29.48 17.46 29.47C17.53 29.47 17.61 29.47 17.67 29.47C26.67 29.02 33.83 21.62 33.83 12.55C33.82 11.92 33.79 11.3 33.72 10.67Z" fill="url(#paint_linear_24_3146_0)" fill-opacity="1.000000" fill-rule="nonzero"/>
		<path id="Vector" d="M16.83 12.24C20.2 12.24 22.95 9.5 22.95 6.12C22.95 2.74 20.2 0 16.83 0C13.45 0 10.71 2.74 10.71 6.12C10.71 9.5 13.45 12.24 16.83 12.24Z" fill="#6F4A9E" fill-opacity="1.000000" fill-rule="nonzero"/>
		<path id="Vector" d="M105.42 10.63C107.46 10.63 109.11 11.25 110.38 12.5C111.64 13.72 112.27 15.5 112.27 17.82L112.27 27.71L109.52 27.71L109.52 18.22C109.52 16.55 109.1 15.27 108.26 14.39C107.43 13.5 106.29 13.05 104.84 13.05C103.37 13.05 102.2 13.51 101.32 14.42C100.46 15.34 100.03 16.68 100.03 18.43L100.03 27.71L97.25 27.71L97.25 10.94L100.03 10.94L100.03 13.32C100.58 12.47 101.33 11.8 102.27 11.33C103.23 10.86 104.28 10.63 105.42 10.63Z" fill="#000000" fill-opacity="1.000000" fill-rule="nonzero"/>
		<path id="Vector" d="M116.79 27.89C116.26 27.89 115.81 27.71 115.44 27.34C115.08 26.97 114.89 26.52 114.89 25.99C114.89 25.46 115.08 25.01 115.44 24.65C115.81 24.28 116.26 24.09 116.79 24.09C117.3 24.09 117.73 24.28 118.08 24.65C118.44 25.01 118.63 25.46 118.63 25.99C118.63 26.52 118.44 26.97 118.08 27.34C117.73 27.71 117.3 27.89 116.79 27.89Z" fill="#000000" fill-opacity="1.000000" fill-rule="nonzero"/>
		<path id="Vector" d="M94.4 20.36C94.46 19.77 94.49 19.21 94.49 18.68C94.49 17.15 94.15 15.78 93.48 14.58C92.83 13.35 91.89 12.39 90.66 11.7C89.44 11.01 88.03 10.66 86.44 10.66C84.81 10.66 83.36 11.02 82.1 11.73C80.85 12.43 79.88 13.43 79.19 14.73C78.5 16.04 78.15 17.56 78.15 19.29C78.15 21.02 78.51 22.55 79.22 23.88C79.93 25.19 80.91 26.2 82.16 26.91C83.42 27.62 84.85 27.98 86.44 27.98C88.44 27.98 90.11 27.48 91.46 26.48C92.81 25.46 93.7 24.15 94.15 22.53L91.15 22.53C90.83 23.47 90.26 24.23 89.44 24.8C88.65 25.35 87.65 25.62 86.44 25.62C84.97 25.62 83.72 25.17 82.68 24.25C81.66 23.31 81.1 22.01 81 20.36L94.4 20.36ZM90.91 15.37C91.38 16.13 91.61 17.04 91.61 18.1L81.03 18.1C81.17 16.51 81.73 15.26 82.71 14.36C83.71 13.47 84.91 13.02 86.32 13.02C87.3 13.02 88.19 13.22 88.98 13.63C89.8 14.02 90.44 14.6 90.91 15.37Z" fill="#000000" fill-opacity="1.000000" fill-rule="evenodd"/>
		<path id="Vector" d="M69.2 25.13L74.4 10.94L77.37 10.94L70.79 27.71L67.55 27.71L60.97 10.94L63.97 10.94L69.2 25.13Z" fill="#000000" fill-opacity="1.000000" fill-rule="nonzero"/>
		<path id="Vector" d="M43.19 14.76C42.5 16.05 42.15 17.55 42.15 19.26C42.15 20.95 42.5 22.46 43.19 23.79C43.89 25.11 44.84 26.14 46.04 26.88C47.24 27.61 48.59 27.98 50.08 27.98C51.53 27.98 52.79 27.66 53.87 27.03C54.98 26.38 55.8 25.56 56.35 24.58L56.35 27.71L59.17 27.71L59.17 10.94L56.35 10.94L56.35 14C55.82 13.04 55.02 12.24 53.94 11.61C52.85 10.98 51.58 10.66 50.11 10.66C48.62 10.66 47.26 11.02 46.04 11.73C44.84 12.45 43.89 13.46 43.19 14.76ZM55.59 15.99C56.1 16.92 56.35 18.03 56.35 19.29C56.35 20.55 56.1 21.67 55.59 22.63C55.08 23.56 54.38 24.29 53.51 24.8C52.65 25.29 51.7 25.53 50.66 25.53C49.62 25.53 48.67 25.29 47.82 24.8C46.96 24.29 46.28 23.56 45.76 22.63C45.25 21.67 45 20.54 45 19.26C45 17.99 45.25 16.89 45.76 15.95C46.28 15.02 46.96 14.3 47.82 13.81C48.67 13.32 49.62 13.08 50.66 13.08C51.7 13.08 52.65 13.33 53.51 13.84C54.38 14.33 55.08 15.05 55.59 15.99Z" fill="#000000" fill-opacity="1.000000" fill-rule="evenodd"/>
	</g>
</svg>
