<svg width="26" height="26" viewBox="0 0 25 25" fill="none" xmlns="http://www.w3.org/2000/svg">
<path d="M21.3472 15.3556L16.9306 13.3766L16.9184 13.3709C16.6892 13.2729 16.439 13.2335 16.1907 13.2564C15.9424 13.2793 15.7037 13.3638 15.4963 13.5022C15.4718 13.5183 15.4484 13.5358 15.4259 13.5547L13.1441 15.5C11.6984 14.7978 10.2059 13.3166 9.50376 11.8897L11.4519 9.57312C11.4706 9.54968 11.4884 9.52624 11.5053 9.50093C11.6407 9.29403 11.7229 9.05686 11.7445 8.81053C11.7661 8.5642 11.7264 8.31636 11.6291 8.08906V8.07781L9.64438 3.65374C9.5157 3.3568 9.29444 3.10944 9.01362 2.94859C8.7328 2.78774 8.4075 2.72202 8.08626 2.76124C6.81592 2.92841 5.64986 3.55228 4.80588 4.51633C3.9619 5.48039 3.49771 6.7187 3.50001 7.99999C3.50001 15.4437 9.55626 21.5 17 21.5C18.2813 21.5023 19.5196 21.0381 20.4837 20.1941C21.4477 19.3501 22.0716 18.1841 22.2388 16.9137C22.2781 16.5926 22.2125 16.2674 22.0518 15.9866C21.8911 15.7058 21.644 15.4845 21.3472 15.3556ZM17 20C13.8185 19.9965 10.7682 18.7311 8.51856 16.4814C6.26888 14.2318 5.00348 11.1815 5.00001 7.99999C4.99648 7.08451 5.32631 6.19905 5.92789 5.50897C6.52947 4.81888 7.36167 4.37137 8.26907 4.24999C8.2687 4.25373 8.2687 4.2575 8.26907 4.26124L10.2378 8.66749L8.30001 10.9869C8.28034 11.0095 8.26247 11.0336 8.24657 11.0591C8.10549 11.2755 8.02273 11.5248 8.0063 11.7827C7.98988 12.0406 8.04035 12.2983 8.15282 12.5309C9.0022 14.2681 10.7525 16.0053 12.5084 16.8537C12.7428 16.9652 13.002 17.0139 13.2608 16.9952C13.5196 16.9764 13.7692 16.8909 13.985 16.7469C14.0091 16.7307 14.0322 16.7131 14.0544 16.6944L16.3334 14.75L20.7397 16.7234C20.7397 16.7234 20.7472 16.7234 20.75 16.7234C20.6301 17.6321 20.1833 18.466 19.4931 19.0691C18.8028 19.6721 17.9166 20.0031 17 20Z" fill="white"/>
</svg>
