<svg width="39" height="39" viewBox="0 0 39 39" fill="none" xmlns="http://www.w3.org/2000/svg">
<circle cx="19.5" cy="19.5" r="19.5" fill="#CEEEFF"/>
<path d="M27.4871 22.0781L23.4999 20.2915L23.4889 20.2864C23.2819 20.1979 23.0561 20.1624 22.8319 20.183C22.6077 20.2037 22.3923 20.28 22.205 20.4049C22.1829 20.4195 22.1617 20.4353 22.1415 20.4523L20.0815 22.2085C18.7764 21.5746 17.429 20.2373 16.7951 18.9492L18.5538 16.8578C18.5707 16.8367 18.5868 16.8155 18.602 16.7927C18.7243 16.6059 18.7984 16.3918 18.8179 16.1694C18.8374 15.947 18.8016 15.7233 18.7137 15.5181V15.5079L16.922 11.514C16.8058 11.2459 16.6061 11.0226 16.3526 10.8774C16.0991 10.7321 15.8054 10.6728 15.5154 10.7082C14.3685 10.8591 13.3158 11.4224 12.5539 12.2927C11.792 13.163 11.3729 14.2809 11.375 15.4377C11.375 22.1577 16.8425 27.6252 23.5625 27.6252C24.7192 27.6272 25.8372 27.2082 26.7075 26.4462C27.5778 25.6843 28.141 24.6316 28.2919 23.4848C28.3274 23.1949 28.2682 22.9013 28.1231 22.6478C27.9781 22.3943 27.755 22.1945 27.4871 22.0781ZM23.5625 26.271C20.6903 26.2678 17.9366 25.1255 15.9056 23.0945C13.8747 21.0635 12.7323 18.3099 12.7292 15.4377C12.726 14.6112 13.0237 13.8118 13.5668 13.1888C14.1099 12.5658 14.8612 12.1618 15.6804 12.0522C15.6801 12.0556 15.6801 12.059 15.6804 12.0624L17.4578 16.0403L15.7083 18.1341C15.6906 18.1546 15.6745 18.1764 15.6601 18.1993C15.5327 18.3947 15.458 18.6198 15.4432 18.8526C15.4284 19.0854 15.4739 19.3181 15.5755 19.5281C16.3423 21.0964 17.9224 22.6647 19.5076 23.4306C19.7192 23.5312 19.9532 23.5752 20.1869 23.5583C20.4205 23.5414 20.6458 23.4641 20.8406 23.3341C20.8624 23.3195 20.8833 23.3037 20.9033 23.2867L22.9608 21.5314L26.9386 23.313C26.9386 23.313 26.9454 23.313 26.9479 23.313C26.8397 24.1333 26.4363 24.8861 25.8132 25.4306C25.1901 25.975 24.39 26.2738 23.5625 26.271Z" fill="#064163"/>
</svg>
