
<svg width="40" height="40" viewBox="0 0 40 40" fill="none" xmlns="http://www.w3.org/2000/svg">
<path d="M17.5641 16.0203C17.5121 15.8646 17.4914 15.7001 17.503 15.5364C17.5147 15.3726 17.5584 15.2128 17.6319 15.0659C17.7053 14.9191 17.8069 14.7882 17.9309 14.6806C18.0549 14.573 18.1989 14.491 18.3547 14.4391L20.2297 13.8141C20.4176 13.7514 20.6177 13.7343 20.8135 13.7642C21.0093 13.7941 21.1952 13.8701 21.3559 13.9859C21.5166 14.1017 21.6475 14.254 21.7377 14.4304C21.828 14.6067 21.875 14.8019 21.875 15V21.25C21.875 21.5815 21.7433 21.8995 21.5089 22.1339C21.2745 22.3683 20.9565 22.5 20.625 22.5C20.2935 22.5 19.9755 22.3683 19.7411 22.1339C19.5067 21.8995 19.375 21.5815 19.375 21.25V16.7344L19.1453 16.8109C18.9896 16.8629 18.8251 16.8836 18.6614 16.872C18.4976 16.8603 18.3378 16.8166 18.1909 16.7431C18.0441 16.6697 17.9132 16.5681 17.8056 16.4441C17.698 16.3201 17.616 16.1761 17.5641 16.0203ZM38.75 32.5C38.75 32.8315 38.6183 33.1495 38.3839 33.3839C38.1495 33.6183 37.8315 33.75 37.5 33.75H2.5C2.16848 33.75 1.85054 33.6183 1.61612 33.3839C1.3817 33.1495 1.25 32.8315 1.25 32.5C1.25 32.1685 1.3817 31.8505 1.61612 31.6161C1.85054 31.3817 2.16848 31.25 2.5 31.25H3.75V16.25C3.75 15.587 4.01339 14.9511 4.48223 14.4822C4.95107 14.0134 5.58696 13.75 6.25 13.75H12.5V8.75C12.5 8.08696 12.7634 7.45107 13.2322 6.98223C13.7011 6.51339 14.337 6.25 15 6.25H25C25.663 6.25 26.2989 6.51339 26.7678 6.98223C27.2366 7.45107 27.5 8.08696 27.5 8.75V20H33.75C34.413 20 35.0489 20.2634 35.5178 20.7322C35.9866 21.2011 36.25 21.837 36.25 22.5V31.25H37.5C37.8315 31.25 38.1495 31.3817 38.3839 31.6161C38.6183 31.8505 38.75 32.1685 38.75 32.5ZM27.5 22.5V31.25H33.75V22.5H27.5ZM15 31.25H25V8.75H15V31.25ZM6.25 31.25H12.5V16.25H6.25V31.25Z" fill="#4BB5EE"/>
</svg>