<svg width="60" height="60" viewBox="0 0 60 60" fill="none" xmlns="http://www.w3.org/2000/svg">
<circle cx="30" cy="30" r="29.5" fill="#064163" stroke="#F5F6F7"/>
<rect width="32" height="32" transform="translate(14 14)" fill="#064163"/>
<path d="M43.0088 37.3451C43.6998 35.912 44.0388 34.3346 43.9977 32.7441C43.9567 31.1536 43.5367 29.5959 42.7727 28.2003C42.0087 26.8047 40.9228 25.6116 39.6051 24.7199C38.2873 23.8283 36.7759 23.264 35.1963 23.0739C34.6707 21.8518 33.9065 20.7469 32.9486 19.8239C31.9907 18.9008 30.8582 18.1782 29.6175 17.6983C28.3768 17.2184 27.0528 16.9909 25.7231 17.029C24.3933 17.0672 23.0846 17.3703 21.8734 17.9205C20.6623 18.4708 19.5731 19.2572 18.6697 20.2336C17.7663 21.2101 17.0668 22.357 16.6121 23.6072C16.1574 24.8573 15.9568 26.1857 16.0219 27.5143C16.087 28.843 16.4166 30.1454 16.9913 31.3451L16.0825 34.4339C15.9809 34.7787 15.9741 35.1445 16.0629 35.4928C16.1516 35.8412 16.3326 36.1592 16.5868 36.4134C16.8409 36.6676 17.1589 36.8485 17.5073 36.9373C17.8556 37.026 18.2215 37.0192 18.5663 36.9176L21.655 36.0089C22.6468 36.4854 23.7101 36.7957 24.8025 36.9276C25.3333 38.1711 26.1106 39.2941 27.0877 40.2286C28.0647 41.1632 29.2211 41.8899 30.4869 42.3649C31.7528 42.8398 33.1018 43.0531 34.4525 42.992C35.8031 42.9308 37.1273 42.5963 38.345 42.0089L41.4338 42.9176C41.7785 43.0191 42.1441 43.0258 42.4923 42.9372C42.8405 42.8485 43.1584 42.6676 43.4125 42.4136C43.6667 42.1596 43.8477 41.8418 43.9366 41.4937C44.0254 41.1455 44.0188 40.7798 43.9175 40.4351L43.0088 37.3451ZM21.75 33.9376C21.6545 33.9378 21.5594 33.9513 21.4675 33.9776L18 35.0001L19.0213 31.5301C19.0939 31.2794 19.0657 31.0102 18.9425 30.7801C18.0379 29.0883 17.7714 27.1278 18.1915 25.2559C18.6116 23.3841 19.6904 21.7255 21.2312 20.5825C22.772 19.4396 24.6723 18.8884 26.5855 19.0295C28.4988 19.1705 30.2976 19.9944 31.6542 21.351C33.0107 22.7075 33.8346 24.5064 33.9757 26.4196C34.1167 28.3329 33.5655 30.2331 32.4226 31.7739C31.2797 33.3147 29.6211 34.3935 27.7492 34.8136C25.8773 35.2338 23.9168 34.9672 22.225 34.0626C22.0796 33.9821 21.9163 33.9391 21.75 33.9376ZM40.9738 37.5289L42 41.0001L38.53 39.9789C38.2793 39.9062 38.0102 39.9345 37.78 40.0576C35.9386 41.0409 33.7859 41.266 31.7808 40.6851C29.7757 40.1041 28.0768 38.763 27.0463 36.9476C28.4155 36.8047 29.7404 36.3804 30.9379 35.7012C32.1354 35.0221 33.1796 34.1029 34.0051 33.0011C34.8305 31.8994 35.4194 30.639 35.7347 29.2989C36.0501 27.9588 36.0851 26.5681 35.8375 25.2139C37.0305 25.4951 38.1429 26.0466 39.0889 26.826C40.0349 27.6053 40.7892 28.5916 41.2935 29.7088C41.7978 30.8259 42.0387 32.0439 41.9976 33.2689C41.9565 34.4939 41.6344 35.6931 41.0563 36.7739C40.9318 37.0054 40.9035 37.2766 40.9775 37.5289H40.9738Z" fill="white"/>
</svg>
