<svg width="40" height="40" viewBox="0 0 40 40" fill="none" xmlns="http://www.w3.org/2000/svg">
<path d="M33.75 3.75H11.25C9.5924 3.75 8.00269 4.40848 6.83058 5.58058C5.65848 6.75269 5 8.3424 5 10V21.25C5 22.2446 5.39509 23.1984 6.09835 23.9017C6.80161 24.6049 7.75544 25 8.75 25H16.25L15.0172 32.2922C15.006 32.3609 15.0002 32.4304 15 32.5C15 33.8261 15.5268 35.0979 16.4645 36.0355C17.4021 36.9732 18.6739 37.5 20 37.5C21.3261 37.5 22.5979 36.9732 23.5355 36.0355C24.4732 35.0979 25 33.8261 25 32.5C24.9998 32.4304 24.994 32.3609 24.9828 32.2922L23.75 25H31.25C32.2446 25 33.1984 24.6049 33.9017 23.9017C34.6049 23.1984 35 22.2446 35 21.25V5C35 4.66848 34.8683 4.35054 34.6339 4.11612C34.3995 3.8817 34.0815 3.75 33.75 3.75ZM11.25 6.25H27.5V12.5C27.5 12.8315 27.6317 13.1495 27.8661 13.3839C28.1005 13.6183 28.4185 13.75 28.75 13.75C29.0815 13.75 29.3995 13.6183 29.6339 13.3839C29.8683 13.1495 30 12.8315 30 12.5V6.25H32.5V16.25H7.5V10C7.5 9.00544 7.89509 8.05161 8.59835 7.34835C9.30161 6.64509 10.2554 6.25 11.25 6.25ZM31.25 22.5H23.75C23.3919 22.5 23.0379 22.5769 22.7121 22.7256C22.3862 22.8743 22.0961 23.0913 21.8615 23.3618C21.6268 23.6323 21.453 23.9502 21.3518 24.2937C21.2506 24.6373 21.2244 24.9986 21.275 25.3531V25.3844L22.5 32.5938C22.5 33.2568 22.2366 33.8927 21.7678 34.3615C21.2989 34.8304 20.663 35.0938 20 35.0938C19.337 35.0938 18.7011 34.8304 18.2322 34.3615C17.7634 33.8927 17.5 33.2568 17.5 32.5938L18.7188 25.3844V25.3531C18.7693 24.9991 18.7432 24.6383 18.6424 24.2952C18.5416 23.9521 18.3683 23.6346 18.1343 23.3642C17.9003 23.0937 17.611 22.8766 17.286 22.7276C16.9609 22.5785 16.6076 22.5009 16.25 22.5H8.75C8.41848 22.5 8.10054 22.3683 7.86612 22.1339C7.6317 21.8995 7.5 21.5815 7.5 21.25V18.75H32.5V21.25C32.5 21.5815 32.3683 21.8995 32.1339 22.1339C31.8995 22.3683 31.5815 22.5 31.25 22.5Z" fill="#4BB5EE"/>
</svg>