
<svg width="547" height="299" viewBox="0 0 547 299" fill="none" xmlns="http://www.w3.org/2000/svg">
<mask id="mask0_24_3231" style="mask-type:alpha" maskUnits="userSpaceOnUse" x="0" y="0" width="547" height="299">
<rect x="0.5" y="0.5" width="546" height="298" rx="14.5" fill="#FED36A" stroke="#064163"/>
</mask>
<g mask="url(#mask0_24_3231)">
<path d="M653.41 213C653.41 277.324 599.281 329.5 532.47 329.5C465.658 329.5 411.529 277.324 411.529 213C411.529 148.676 465.658 96.5 532.47 96.5C599.281 96.5 653.41 148.676 653.41 213Z" stroke="#6B788E"/>
<path d="M606.702 238C606.702 284.651 567.443 322.5 518.976 322.5C470.508 322.5 431.25 284.651 431.25 238C431.25 191.349 470.508 153.5 518.976 153.5C567.443 153.5 606.702 191.349 606.702 238Z" stroke="#6B788E"/>
</g>
</svg>
