<svg width="40" height="41" viewBox="0 0 40 41" fill="none" xmlns="http://www.w3.org/2000/svg">
<path d="M20 40.9536C31.0457 40.9536 40 31.9993 40 20.9536C40 9.90792 31.0457 0.953613 20 0.953613C8.95431 0.953613 0 9.90792 0 20.9536C0 31.9993 8.95431 40.9536 20 40.9536Z" fill="#EBEDF0"/>
<path d="M18.699 28.3466L18.6786 22.0497H16V19.351H18.6786V17.5519C18.6786 15.1238 20.171 13.9536 22.3209 13.9536C23.3507 13.9536 24.2358 14.0309 24.4937 14.0654V16.6029L23.0026 16.6036C21.8334 16.6036 21.607 17.1633 21.607 17.9848V19.351H24.9286L24.0357 22.0497H21.607V28.3466H18.699Z" fill="#242F4B"/>
</svg>