
<svg width="40" height="41" viewBox="0 0 40 41" fill="none" xmlns="http://www.w3.org/2000/svg">
<path d="M20 40.9536C31.0457 40.9536 40 31.9993 40 20.9536C40 9.90792 31.0457 0.953613 20 0.953613C8.95431 0.953613 0 9.90792 0 20.9536C0 31.9993 8.95431 40.9536 20 40.9536Z" fill="#EBEDF0"/>
<g clip-path="url(#clip0_24_3414)">
<path d="M23.75 13.4536H16.25C14.1789 13.4536 12.5 15.1325 12.5 17.2036V24.7036C12.5 26.7747 14.1789 28.4536 16.25 28.4536H23.75C25.8211 28.4536 27.5 26.7747 27.5 24.7036V17.2036C27.5 15.1325 25.8211 13.4536 23.75 13.4536Z" stroke="#2B3651" stroke-width="2" stroke-linecap="round" stroke-linejoin="round"/>
<path d="M22.9998 20.4813C23.0923 21.1055 22.9857 21.743 22.6951 22.3031C22.4045 22.8632 21.9446 23.3174 21.381 23.6011C20.8174 23.8848 20.1786 23.9835 19.5556 23.8833C18.9326 23.783 18.3571 23.4889 17.9109 23.0427C17.4647 22.5965 17.1706 22.021 17.0703 21.398C16.9701 20.775 17.0688 20.1363 17.3525 19.5726C17.6362 19.009 18.0904 18.5491 18.6505 18.2585C19.2106 17.9679 19.8481 17.8613 20.4723 17.9538C21.109 18.0483 21.6984 18.3449 22.1536 18.8001C22.6087 19.2552 22.9054 19.8446 22.9998 20.4813Z" stroke="#2B3651" stroke-width="2" stroke-linecap="round" stroke-linejoin="round"/>
<ellipse cx="24.125" cy="16.8286" rx="1.125" ry="1.125" fill="#EBEDF0"/>
</g>
<defs>
<clipPath id="clip0_24_3414">
<rect width="18" height="18" fill="white" transform="translate(11 11.9536)"/>
</clipPath>
</defs>
</svg>
