
<svg width="60" height="60" viewBox="0 0 60 60" fill="none" xmlns="http://www.w3.org/2000/svg">
<circle cx="30" cy="30" r="29.5" fill="#064163" stroke="#F5F6F7"/>
<rect width="32" height="32" transform="translate(14 14)" fill="#064163"/>
<path d="M42 39H41V19C41 18.7348 40.8946 18.4804 40.7071 18.2929C40.5196 18.1054 40.2652 18 40 18H33C32.7348 18 32.4804 18.1054 32.2929 18.2929C32.1054 18.4804 32 18.7348 32 19V24H26C25.7348 24 25.4804 24.1054 25.2929 24.2929C25.1054 24.4804 25 24.7348 25 25V30H20C19.7348 30 19.4804 30.1054 19.2929 30.2929C19.1054 30.4804 19 30.7348 19 31V39H18C17.7348 39 17.4804 39.1054 17.2929 39.2929C17.1054 39.4804 17 39.7348 17 40C17 40.2652 17.1054 40.5196 17.2929 40.7071C17.4804 40.8946 17.7348 41 18 41H42C42.2652 41 42.5196 40.8946 42.7071 40.7071C42.8946 40.5196 43 40.2652 43 40C43 39.7348 42.8946 39.4804 42.7071 39.2929C42.5196 39.1054 42.2652 39 42 39ZM34 20H39V39H34V20ZM27 26H32V39H27V26ZM21 32H25V39H21V32Z" fill="white"/>
</svg>
