
<svg width="32" height="32" viewBox="0 0 32 32" fill="none" xmlns="http://www.w3.org/2000/svg">
<g clip-path="url(#clip0_24_3246)">
<path d="M31.7071 16.7075L28.7071 19.7075C28.6142 19.8005 28.5039 19.8742 28.3825 19.9245C28.2611 19.9749 28.131 20.0008 27.9996 20.0008C27.8682 20.0008 27.738 19.9749 27.6166 19.9245C27.4952 19.8742 27.385 19.8005 27.2921 19.7075L24.2921 16.7075C24.1044 16.5198 23.999 16.2653 23.999 16C23.999 15.7346 24.1044 15.4801 24.2921 15.2925C24.4797 15.1048 24.7342 14.9994 24.9996 14.9994C25.2649 14.9994 25.5194 15.1048 25.7071 15.2925L26.9996 16.5862V16C27.0007 13.6708 26.2625 11.4013 24.8912 9.51854C23.5199 7.63577 21.5864 6.23687 19.3692 5.52337C17.152 4.80987 14.7655 4.8186 12.5535 5.54829C10.3415 6.27799 8.4183 7.69098 7.06083 9.58373C6.90601 9.79922 6.67193 9.94438 6.41008 9.98728C6.14823 10.0302 5.88007 9.9673 5.66458 9.81248C5.44909 9.65766 5.30393 9.42358 5.26103 9.16173C5.21813 8.89988 5.28101 8.63172 5.43583 8.41623C7.04019 6.17938 9.31318 4.50954 11.9274 3.64725C14.5415 2.78497 17.362 2.77476 19.9823 3.61809C22.6027 4.46143 24.8877 6.11477 26.5082 8.33995C28.1287 10.5651 29.0011 13.2473 28.9996 16V16.5862L30.2921 15.2925C30.4797 15.1048 30.7342 14.9994 30.9996 14.9994C31.2649 14.9994 31.5194 15.1048 31.7071 15.2925C31.8947 15.4801 32.0001 15.7346 32.0001 16C32.0001 16.2653 31.8947 16.5198 31.7071 16.7075ZM26.5596 23.5825C24.9548 25.8176 22.6821 27.4859 20.0688 28.3472C17.4554 29.2085 14.6362 29.2184 12.0169 28.3754C9.39756 27.5324 7.11329 25.88 5.49288 23.6562C3.87246 21.4323 2.99947 18.7516 2.99958 16V15.4137L1.70708 16.7075C1.51944 16.8951 1.26494 17.0005 0.99958 17.0005C0.734216 17.0005 0.47972 16.8951 0.29208 16.7075C0.104439 16.5198 -0.000976562 16.2653 -0.000976562 16C-0.000976563 15.7346 0.104439 15.4801 0.29208 15.2925L3.29208 12.2925C3.38495 12.1995 3.49524 12.1257 3.61664 12.0754C3.73804 12.0251 3.86816 11.9992 3.99958 11.9992C4.13099 11.9992 4.26112 12.0251 4.38252 12.0754C4.50392 12.1257 4.61421 12.1995 4.70708 12.2925L7.70708 15.2925C7.89472 15.4801 8.00014 15.7346 8.00014 16C8.00014 16.2653 7.89472 16.5198 7.70708 16.7075C7.51944 16.8951 7.26494 17.0005 6.99958 17.0005C6.73422 17.0005 6.47972 16.8951 6.29208 16.7075L4.99958 15.4137V16C4.99721 18.6927 5.98689 21.292 7.77958 23.3012C8.89487 21.6851 10.4631 20.4348 12.2871 19.7075C11.3073 18.9358 10.5924 17.878 10.2417 16.6811C9.89097 15.4842 9.92196 14.2078 10.3303 13.0294C10.7387 11.851 11.5041 10.8291 12.5202 10.1058C13.5362 9.3826 14.7524 8.99395 15.9996 8.99395C17.2468 8.99395 18.4629 9.3826 19.479 10.1058C20.4951 10.8291 21.2605 11.851 21.6688 13.0294C22.0772 14.2078 22.1082 15.4842 21.7575 16.6811C21.4068 17.878 20.6918 18.9358 19.7121 19.7075C21.5377 20.4349 23.1071 21.6867 24.2221 23.305C24.4749 23.021 24.7131 22.7244 24.9358 22.4162C25.0907 22.2007 25.3247 22.0556 25.5866 22.0127C25.8484 21.9698 26.1166 22.0327 26.3321 22.1875C26.5476 22.3423 26.6927 22.5764 26.7356 22.8382C26.7785 23.1001 26.7157 23.3682 26.5608 23.5837L26.5596 23.5825ZM15.9996 19C16.7907 19 17.5641 18.7654 18.2219 18.3259C18.8797 17.8863 19.3923 17.2616 19.6951 16.5307C19.9978 15.7998 20.0771 14.9955 19.9227 14.2196C19.7684 13.4437 19.3874 12.731 18.828 12.1716C18.2686 11.6121 17.5559 11.2312 16.7799 11.0768C16.004 10.9225 15.1997 11.0017 14.4688 11.3045C13.7379 11.6072 13.1132 12.1199 12.6737 12.7777C12.2342 13.4355 11.9996 14.2089 11.9996 15C11.9996 16.0608 12.421 17.0783 13.1712 17.8284C13.9213 18.5786 14.9387 19 15.9996 19ZM15.9996 27C18.4401 26.9968 20.8107 26.1839 22.7396 24.6887C22.0162 23.5573 21.0196 22.6262 19.8417 21.9813C18.6638 21.3364 17.3425 20.9983 15.9996 20.9983C14.6567 20.9983 13.3354 21.3364 12.1575 21.9813C10.9796 22.6262 9.983 23.5573 9.25958 24.6887C11.1856 26.1893 13.558 27.0028 15.9996 27Z" fill="white"/>
</g>
<defs>
<clipPath id="clip0_24_3246">
<rect width="32" height="32" fill="white"/>
</clipPath>
</defs>
</svg>
