
<svg width="118" height="118" viewBox="0 0 118 118" fill="none" xmlns="http://www.w3.org/2000/svg">
<g clip-path="url(#clip0_24_3458)">
<path d="M75.4256 37.1128C80.9535 37.4133 86.3162 39.1036 91.0173 42.0273C95.7184 44.9509 99.6059 49.0134 102.32 53.8385C105.034 58.6637 106.487 64.0955 106.544 69.6313C106.601 75.1671 105.26 80.6278 102.646 85.5078L106.376 98.195C106.561 98.825 106.573 99.4932 106.41 100.129C106.248 100.766 105.917 101.346 105.453 101.811C104.989 102.275 104.408 102.606 103.772 102.768C103.136 102.93 102.467 102.918 101.837 102.733L89.164 98.9902C84.9775 101.229 80.3564 102.536 75.6175 102.822C70.8785 103.108 66.1338 102.366 61.7086 100.646C57.2833 98.9268 53.2822 96.2708 49.9795 92.8603C46.6769 89.4498 44.1507 85.3654 42.5742 80.8872" fill="#CEEEFF"/>
<path d="M15.3538 63.5704C11.6292 56.6122 10.5296 48.5471 12.2554 40.8458C13.9812 33.1444 18.4174 26.3199 24.7552 21.6166C31.093 16.9132 38.9101 14.6444 46.7812 15.2239C54.6522 15.8033 62.0528 19.1924 67.6335 24.7731C73.2142 30.3538 76.6033 37.7544 77.1827 45.6254C77.7622 53.4965 75.4934 61.3136 70.79 67.6514C66.0867 73.9892 59.2621 78.4254 51.5608 80.1512C43.8595 81.877 35.7944 80.7774 28.8362 77.0528L16.149 80.7822C15.519 80.9672 14.8508 80.9792 14.2146 80.8168C13.5784 80.6544 12.9977 80.3237 12.5334 79.8595C12.0692 79.3952 11.7385 78.8144 11.5761 78.1782C11.4137 77.542 11.4257 76.8739 11.6107 76.2439L15.3538 63.5704Z" fill="#064163"/>
</g>
<defs>
<clipPath id="clip0_24_3458">
<rect width="117" height="117" fill="white" transform="translate(0.5 0.5)"/>
</clipPath>
</defs>
</svg>
