<svg width="40" height="40" viewBox="0 0 40 40" fill="none" xmlns="http://www.w3.org/2000/svg">
<path d="M36.769 11.4641L28.5361 3.2328C28.304 3.00059 28.0284 2.81639 27.725 2.69072C27.4217 2.56505 27.0965 2.50037 26.7682 2.50037C26.4398 2.50037 26.1147 2.56505 25.8113 2.69072C25.508 2.81639 25.2324 3.00059 25.0002 3.2328L3.23146 25C2.99925 25.2321 2.81505 25.5078 2.68938 25.8111C2.56371 26.1145 2.49902 26.4396 2.49902 26.768C2.49902 27.0963 2.56371 27.4214 2.68938 27.7248C2.81505 28.0281 2.99925 28.3038 3.23146 28.5359L11.4643 36.7672C11.6964 36.9994 11.972 37.1836 12.2754 37.3093C12.5787 37.4349 12.9039 37.4996 13.2322 37.4996C13.5606 37.4996 13.8857 37.4349 14.1891 37.3093C14.4924 37.1836 14.7681 36.9994 15.0002 36.7672L36.769 15C37.0012 14.7678 37.1854 14.4922 37.311 14.1889C37.4367 13.8855 37.5014 13.5604 37.5014 13.232C37.5014 12.9037 37.4367 12.5785 37.311 12.2752C37.1854 11.9718 37.0012 11.6962 36.769 11.4641ZM13.2315 35L5.00021 26.7672L10.0002 21.7672L14.1158 25.8844C14.232 26.0005 14.3698 26.0926 14.5216 26.1555C14.6733 26.2183 14.836 26.2507 15.0002 26.2507C15.1645 26.2507 15.3271 26.2183 15.4788 26.1555C15.6306 26.0926 15.7684 26.0005 15.8846 25.8844C16.0007 25.7682 16.0928 25.6303 16.1557 25.4786C16.2186 25.3269 16.2509 25.1642 16.2509 25C16.2509 24.8357 16.2186 24.6731 16.1557 24.5214C16.0928 24.3696 16.0007 24.2318 15.8846 24.1156L11.7674 20L15.0002 16.7672L19.1158 20.8844C19.3504 21.1189 19.6685 21.2507 20.0002 21.2507C20.3319 21.2507 20.65 21.1189 20.8846 20.8844C21.1191 20.6498 21.2509 20.3317 21.2509 20C21.2509 19.6683 21.1191 19.3502 20.8846 19.1156L16.7674 15L20.0002 11.7672L24.1158 15.8844C24.232 16.0005 24.3698 16.0926 24.5216 16.1555C24.6733 16.2183 24.836 16.2507 25.0002 16.2507C25.1645 16.2507 25.3271 16.2183 25.4788 16.1555C25.6306 16.0926 25.7684 16.0005 25.8846 15.8844C26.0007 15.7682 26.0928 15.6303 26.1557 15.4786C26.2186 15.3269 26.2509 15.1642 26.2509 15C26.2509 14.8357 26.2186 14.6731 26.1557 14.5214C26.0928 14.3696 26.0007 14.2317 25.8846 14.1156L21.7674 9.99999L26.7674 4.99999L35.0002 13.2328L13.2315 35Z" fill="#4BB5EE"/>
</svg>