<svg width="60" height="60" viewBox="0 0 60 60" fill="none" xmlns="http://www.w3.org/2000/svg">
<circle cx="30" cy="30" r="29.5" fill="#064163" stroke="#F5F6F7"/>
<rect width="32" height="32" transform="translate(14 14)" fill="#064163"/>
<path d="M30 19C27.6266 19 25.3066 19.7038 23.3332 21.0224C21.3598 22.3409 19.8217 24.2151 18.9135 26.4078C18.0052 28.6005 17.7676 31.0133 18.2306 33.3411C18.6936 35.6689 19.8365 37.8071 21.5147 39.4853C23.193 41.1635 25.3312 42.3064 27.6589 42.7694C29.9867 43.2324 32.3995 42.9948 34.5922 42.0866C36.7849 41.1783 38.6591 39.6402 39.9776 37.6668C41.2962 35.6935 42 33.3734 42 31C41.9964 27.8185 40.7309 24.7684 38.4813 22.5187C36.2316 20.2691 33.1815 19.0036 30 19ZM30 41C28.0222 41 26.0888 40.4135 24.4443 39.3147C22.7998 38.2159 21.5181 36.6541 20.7612 34.8268C20.0043 32.9996 19.8063 30.9889 20.1922 29.0491C20.578 27.1093 21.5304 25.3275 22.9289 23.9289C24.3275 22.5304 26.1093 21.578 28.0491 21.1921C29.9889 20.8063 31.9996 21.0043 33.8268 21.7612C35.6541 22.5181 37.2159 23.7998 38.3147 25.4443C39.4135 27.0888 40 29.0222 40 31C39.997 33.6513 38.9425 36.1931 37.0678 38.0678C35.1931 39.9425 32.6513 40.997 30 41ZM35.7075 25.2925C35.8005 25.3854 35.8742 25.4957 35.9246 25.6171C35.9749 25.7385 36.0008 25.8686 36.0008 26C36.0008 26.1314 35.9749 26.2615 35.9246 26.3829C35.8742 26.5043 35.8005 26.6146 35.7075 26.7075L30.7075 31.7075C30.6146 31.8004 30.5043 31.8741 30.3829 31.9244C30.2615 31.9747 30.1314 32.0006 30 32.0006C29.8686 32.0006 29.7385 31.9747 29.6171 31.9244C29.4957 31.8741 29.3854 31.8004 29.2925 31.7075C29.1996 31.6146 29.1259 31.5043 29.0756 31.3829C29.0253 31.2615 28.9994 31.1314 28.9994 31C28.9994 30.8686 29.0253 30.7385 29.0756 30.6171C29.1259 30.4957 29.1996 30.3854 29.2925 30.2925L34.2925 25.2925C34.3854 25.1995 34.4957 25.1258 34.6171 25.0754C34.7385 25.0251 34.8686 24.9992 35 24.9992C35.1314 24.9992 35.2615 25.0251 35.3829 25.0754C35.5043 25.1258 35.6146 25.1995 35.7075 25.2925ZM26 16C26 15.7348 26.1054 15.4804 26.2929 15.2929C26.4804 15.1054 26.7348 15 27 15H33C33.2652 15 33.5196 15.1054 33.7071 15.2929C33.8946 15.4804 34 15.7348 34 16C34 16.2652 33.8946 16.5196 33.7071 16.7071C33.5196 16.8946 33.2652 17 33 17H27C26.7348 17 26.4804 16.8946 26.2929 16.7071C26.1054 16.5196 26 16.2652 26 16Z" fill="white"/>
</svg>