
<svg width="40" height="41" viewBox="0 0 40 41" fill="none" xmlns="http://www.w3.org/2000/svg">
<path d="M20 40.9536C31.0457 40.9536 40 31.9993 40 20.9536C40 9.90792 31.0457 0.953613 20 0.953613C8.95431 0.953613 0 9.90792 0 20.9536C0 31.9993 8.95431 40.9536 20 40.9536Z" fill="#EBEDF0"/>
<path d="M27.2857 16.303C26.75 16.5728 26.2143 16.6628 25.5893 16.7527C26.2143 16.3929 26.6607 15.8532 26.8393 15.1335C26.3036 15.4934 25.6786 15.6733 24.9643 15.8532C24.4286 15.3134 23.625 14.9536 22.8214 14.9536C21.3036 14.9536 19.9643 16.303 19.9643 17.9222C19.9643 18.192 19.9643 18.372 20.0536 18.5519C17.6429 18.4619 15.4107 17.2925 13.9821 15.4934C13.7143 15.9431 13.625 16.3929 13.625 17.0226C13.625 18.0121 14.1607 18.9117 14.9643 19.4514C14.5179 19.4514 14.0714 19.2715 13.625 19.0916C13.625 20.5309 14.6071 21.7003 15.9464 21.9702C15.6786 22.0602 15.4107 22.0602 15.1429 22.0602C14.9643 22.0602 14.7857 22.0602 14.6071 21.9702C14.9643 23.1396 16.0357 24.0392 17.375 24.0392C16.3929 24.8488 15.1429 25.2986 13.7143 25.2986C13.4464 25.2986 13.2679 25.2986 13 25.2986C14.3393 26.1082 15.8571 26.6479 17.4643 26.6479C22.8214 26.6479 25.7679 22.1501 25.7679 18.282C25.7679 18.192 25.7679 18.0121 25.7679 17.9222C26.3929 17.4724 26.9286 16.9327 27.2857 16.303Z" fill="#242F4B"/>
</svg>
